HIERARCHY
ROOT Hips
{
  OFFSET 0 0 0
  CHANNELS 6 Xposition Yposition Zposition Zrotation Yrotation Xrotation
  JOINT LeftThigh
  {
    OFFSET 8.409438 0 -5.917753
    CHANNELS 3 Zrotation Yrotation Xrotation
    JOINT LeftLeg
    {
      OFFSET 0 0 -42.358652
      CHANNELS 3 Zrotation Yrotation Xrotation
      JOINT LeftFoot
      {
        OFFSET 0 0 -39.357303
        CHANNELS 3 Zrotation Yrotation Xrotation
      }
    }
  }
  JOINT RightThigh
  {
    OFFSET -8.409438 0 -5.917753
    CHANNELS 3 Zrotation Yrotation Xrotation
    JOINT RightLeg
    {
      OFFSET 0 0 -42.358652
      CHANNELS 3 Zrotation Yrotation Xrotation
      JOINT RightFoot
      {
        OFFSET 0 0 -39.357303
        CHANNELS 3 Zrotation Yrotation Xrotation
      }
    }
  }
  JOINT SpineLow
  {
    OFFSET 0 0 4.719101
    CHANNELS 3 Zrotation Yrotation Xrotation
    JOINT SpineMid
    {
      OFFSET 0 0 12.899191
      CHANNELS 3 Zrotation Yrotation Xrotation
      JOINT Chest
      {
        OFFSET 0 0 12.899191
        CHANNELS 3 Zrotation Yrotation Xrotation
        JOINT LeftShoulder
        {
          OFFSET 7.550562 1.41573 9.438202
          CHANNELS 3 Zrotation Yrotation Xrotation
          JOINT LeftArm
          {
            OFFSET 9.155056 0 4.247191
            CHANNELS 3 Zrotation Yrotation Xrotation
            JOINT LeftForearm
            {
              OFFSET 0 0 25.771955
              CHANNELS 3 Zrotation Yrotation Xrotation
              JOINT LeftHand
              {
                OFFSET 0 0 25.197169
                CHANNELS 3 Zrotation Yrotation Xrotation
              }
            }
          }
        }
        JOINT RightShoulder
        {
          OFFSET -7.550562 1.41573 9.438202
          CHANNELS 3 Zrotation Yrotation Xrotation
          JOINT RightArm
          {
            OFFSET -9.155056 0 4.247191
            CHANNELS 3 Zrotation Yrotation Xrotation
            JOINT RightForearm
            {
              OFFSET 0 0 -25.771955
              CHANNELS 3 Zrotation Yrotation Xrotation
              JOINT RightHand
              {
                OFFSET 0 0 -25.197169
                CHANNELS 3 Zrotation Yrotation Xrotation
              }
            }
          }
        }
        JOINT Neck
        {
          OFFSET 0 0 15.101124
          CHANNELS 3 Zrotation Yrotation Xrotation
          JOINT Head
          {
            OFFSET 0 0 11.325843
            CHANNELS 3 Zrotation Yrotation Xrotation
            End Site
            {
              OFFSET 0 0 14.157303
            }
          }
        }
      }
    }
  }
}
MOTION
Frames: 17
Frame Time: 0.0
0.0  89.887642  0.0  1.210012  0.695228  -96.878696  5.538942  -9.832716  1.149622  -9.330429  4.714433  23.779424  3.88688  1.138147  1.908402  -9.500486  12.56104  -5.180847  -2.037519  6.345139  19.688888  9.73523  3.086151  -0.270504  4.526856  -1.45008  0.804636  12.338381  -4.097627  1.92175  12.338381  -4.097627  1.92175  -2.946217  19.640779  2.569224  155.05791  23.956982  -164.704375  -18.387053  41.019931  102.661351  70.847817  -6.734681  15.514924  6.148189  -0.657434  20.335701  13.549654  52.524756  -52.350465  10.714702  -34.294235  -95.498542  81.695872  -8.785245  5.740206  -25.735786  7.934828  3.997376  -19.323783  5.795412  3.336619  
0.0  89.887642  0.0  1.39882  -4.797819  -96.696553  6.096593  -9.534029  3.208766  -6.575985  3.020433  21.630173  4.307809  1.642592  1.997106  -8.967424  12.542088  -6.238696  -1.634764  5.634114  18.47839  10.093686  2.622753  -0.132856  4.573554  -1.3023  0.925625  12.461446  -3.719272  2.276035  12.461446  -3.719272  2.276035  -0.571543  18.393033  2.600958  160.348896  20.896055  -167.975307  -18.012047  44.649468  107.779789  70.013807  -5.943886  17.721574  7.7315  -0.389862  16.534198  8.361696  55.63391  -59.687986  1.921751  -25.165762  -91.378995  84.946839  -7.478182  7.969013  -22.882291  7.270262  3.683278  -17.183215  5.323977  3.037513  
0.0  89.887642  0.0  1.612328  -10.293279  -96.614763  6.404997  -9.0746  5.074945  -3.130445  1.937507  20.163883  4.392666  1.687559  1.793428  -8.797848  12.505522  -7.34043  -1.550907  5.265557  17.527738  10.36945  2.217547  -0.096602  4.519011  -1.050172  1.082553  12.310447  -3.060281  2.753118  12.310447  -3.060281  2.753118  1.864666  16.879974  2.499177  164.800451  17.59599  -171.859376  -15.718582  47.062751  111.571137  69.291027  -6.609449  19.74254  10.164729  -0.451203  11.812295  1.344461  58.537002  -67.870993  -6.385001  -14.868632  -88.198403  86.026118  -5.769851  10.980326  -19.813325  6.073188  3.267353  -14.879044  4.454724  2.649178  
0.0  89.887642  0.0  1.475931  -15.152712  -96.617925  5.843063  -8.758973  6.530399  0.455919  1.028112  19.370725  4.644723  1.746287  1.679665  -9.501962  12.036822  -8.207847  -1.486405  5.187502  16.568815  10.62341  1.921911  -0.002784  4.846564  -0.746021  1.089446  13.21554  -2.247063  2.816023  13.215539  -2.247063  2.816023  1.278948  14.423785  3.292472  168.473902  14.477162  -175.703627  -14.412422  49.819191  115.729246  69.240747  -5.232386  20.586989  9.739372  -1.02925  7.417933  -7.601137  60.499106  -77.099671  -13.511455  -5.288723  -86.268516  86.197244  -4.896637  13.829978  -18.663888  4.241463  3.356218  -14.015302  3.082124  2.648749  
0.0  89.887642  0.0  0.966065  -18.458512  -96.733506  4.383091  -8.271385  7.637363  3.686168  -0.169115  19.220596  4.957065  1.830036  1.623618  -11.579591  11.24819  -8.247483  -1.003375  5.137369  15.12504  11.043707  1.690775  -0.046111  5.400159  -0.546535  0.783909  14.74412  -1.65962  2.009235  14.744121  -1.65962  2.009235  -2.164318  11.787328  6.538841  171.430557  11.997683  -178.389399  -12.639413  49.748253  119.039121  68.795848  -5.917043  18.444784  6.519752  -1.693846  4.666984  -17.005072  61.444204  -85.493084  -18.62169  2.125824  -85.436295  87.189687  -5.090397  16.162971  -18.98218  2.747206  5.061833  -14.257803  1.905463  3.885522  
0.0  89.887642  0.0  0.275357  -20.753417  -96.976522  3.228793  -7.617368  8.542676  6.493522  -2.162074  19.470648  4.788164  2.345963  1.612184  -14.332914  10.735268  -7.723519  0.299351  4.39624  13.382209  11.479405  1.354727  -0.176364  5.898785  -0.494025  0.562714  16.113693  -1.477761  1.407834  16.113692  -1.477761  1.407834  -5.024483  11.092478  10.140346  172.656028  10.557071  -179.989075  -11.283725  49.485915  121.533519  70.173279  -6.017648  15.990217  3.388799  -0.961756  1.598083  -26.546196  61.399322  -92.285411  -21.312935  6.804227  -84.209644  87.81061  -3.667535  17.013597  -20.430834  1.557083  5.710122  -15.338311  0.978199  4.340183  
0.0  89.887642  0.0  -0.40106  -22.186106  -97.184582  3.298534  -7.845183  8.830375  7.643423  -2.759405  20.090526  4.802443  2.39112  1.716595  -16.429195  10.395822  -6.768812  1.404847  3.46091  11.582132  11.637894  1.196202  -0.280507  6.319522  -0.245058  0.574292  17.267629  -0.813898  1.49382  17.267629  -0.813898  1.49382  -8.376706  8.903446  10.511431  172.755906  8.876205  178.247681  -10.72081  48.514138  121.476144  71.1369  -6.445227  14.007909  0.364449  -0.46882  -2.460699  -36.542412  60.597509  -98.775711  -22.688236  9.478558  -83.279691  88.615637  -3.350049  16.952702  -22.080463  -0.790509  5.152559  -16.554849  -0.78046  3.841739  
0.0  89.887642  0.0  -0.878031  -22.389328  -97.126748  4.819562  -9.281824  8.559354  6.525587  -2.06931  20.759181  4.591624  2.376291  1.816742  -17.631728  9.998725  -5.651607  1.07884  3.13069  9.588475  11.85879  1.182489  -0.376481  6.12472  0.040983  0.739704  16.740763  -0.075281  2.017369  16.740765  -0.075281  2.01737  -7.644836  7.08968  9.890838  170.743629  8.652389  177.491859  -10.553258  48.438476  119.924996  71.943279  -6.445758  12.582396  -0.683845  0.940492  -7.010194  -44.849418  59.503183  -103.838249  -22.75612  11.60534  -82.148119  87.879952  -3.957281  16.195858  -21.82142  -2.500846  4.006256  -16.347938  -2.021916  2.919231  
0.0  89.887642  0.0  -1.315118  -21.841626  -96.811821  7.263836  -11.166905  7.845016  3.864584  -0.978939  21.308576  4.281756  2.399088  1.82552  -17.273708  9.179971  -4.404097  -0.931929  3.460145  7.376363  12.000989  0.996369  -0.304073  5.523083  0.203608  0.801693  15.10179  0.370745  2.224587  15.101791  0.370745  2.224587  -6.224237  6.150059  8.484443  169.033267  8.829279  176.42681  -10.946268  48.889161  117.635038  72.474916  -6.484994  11.486294  -0.72073  2.764588  -10.823189  -51.817276  58.818622  -108.130731  -21.518715  12.709324  -81.033475  86.512168  -5.19155  15.265385  -20.158436  -3.183316  2.89173  -15.100286  -2.486168  2.065748  
0.0  89.887642  0.0  -1.867881  -20.725233  -96.536053  9.445172  -13.034536  6.992239  0.808984  0.085922  21.697864  4.190489  2.508054  1.907554  -15.898012  8.106956  -2.880539  -3.772199  3.978466  5.354521  11.522438  0.739247  -0.261943  5.056935  0.273307  0.877825  13.83077  0.560226  2.444435  13.83077  0.560226  2.444435  -5.735377  6.113493  7.456384  164.353651  10.480334  176.53935  -15.467658  50.213595  112.985086  73.18094  -7.354363  11.118016  -2.13666  3.943177  -14.188566  -60.411317  58.658965  -114.47374  -19.477806  12.260768  -79.472569  85.370259  -5.132135  15.443095  -19.043469  -3.445602  1.666652  -14.269023  -2.639203  1.143389  
0.0  89.887642  0.0  -2.579401  -19.86671  -96.53484  11.208519  -14.714963  6.350224  -1.681874  0.868921  21.98362  4.105048  2.550834  1.885758  -13.943427  6.851434  -0.890718  -6.674317  4.526349  3.481192  10.992964  0.560527  -0.351581  4.583258  0.17819  1.032931  12.53294  0.289725  2.845473  12.532941  0.289725  2.845474  -5.821482  6.631143  5.958805  162.533564  10.732697  176.421788  -17.044919  51.256403  109.660129  74.148194  -8.610206  10.805812  -3.028092  4.990578  -16.757075  -71.358859  58.201335  -123.555209  -17.898575  11.702019  -77.632265  83.861755  -3.87349  16.001814  -17.563332  -3.098217  0.404673  -13.167239  -2.337584  0.214484  
0.0  89.887642  0.0  -3.337442  -19.50141  -96.077633  12.466749  -15.913239  5.484148  -3.012581  1.239443  22.115808  4.079204  2.570362  1.836036  -11.913708  5.471959  0.211111  -9.083654  4.945627  2.135053  10.533065  0.37714  -0.360678  4.107814  0.019683  1.007011  11.226887  -0.11706  2.746784  11.226887  -0.11706  2.746784  -5.763486  7.43928  4.949873  161.087316  10.841318  176.203877  -19.191804  52.794523  105.89943  74.98886  -10.076584  10.311758  -2.720361  5.995067  -17.716973  -81.9347  56.969008  -132.299305  -17.113824  12.399875  -76.095541  82.787631  -2.830036  16.250778  -15.715  -2.251779  -0.144689  -11.785264  -1.686436  -0.166584  
0.0  89.887642  0.0  -3.985469  -20.035711  -95.613984  13.537934  -16.793339  5.025434  -3.191323  1.338627  21.96236  3.955187  2.5259  1.777143  -10.029863  4.374548  0.621161  -10.244673  5.141553  1.49935  10.16445  0.292946  -0.2991  3.849819  -0.112994  0.923733  10.51716  -0.454674  2.499663  10.51716  -0.454674  2.499663  -5.935158  7.797444  4.417632  159.859352  11.065499  176.182967  -21.51081  54.652913  102.200776  75.599451  -11.329178  9.258089  -2.456231  6.95421  -18.778739  -90.676381  56.526784  -139.415789  -17.317237  13.882219  -74.680651  82.727032  -2.298706  16.538443  -14.090193  -1.447748  -0.119395  -10.567365  -1.083741  -0.123014  
0.0  89.887642  0.0  -4.164096  -20.590556  -95.455356  13.593049  -17.032508  5.205925  -2.336845  1.291692  21.779814  3.933781  2.491815  1.744159  -9.347889  3.949526  0.672223  -9.982155  5.271615  1.418127  10.115199  0.298614  -0.285828  3.578184  -0.168843  0.91799  9.772817  -0.595876  2.478043  9.772817  -0.595876  2.478043  -5.710405  8.051926  3.845909  158.995915  11.460287  176.317303  -23.334981  56.637578  99.20532  76.173126  -12.451555  7.851001  -2.134867  8.009183  -20.493386  -96.111444  57.565908  -143.997156  -18.305092  16.785808  -73.859589  82.05727  -2.173065  16.674865  -12.264212  -0.611793  -0.00289  -9.198075  -0.459006  -0.014455  
0.0  89.887642  0.0  -4.01113  -20.940438  -95.514588  12.607318  -16.739552  5.840399  -1.098502  1.10702  21.391224  3.989687  2.439147  1.677668  -9.618297  4.225282  0.33337  -8.636179  5.128391  1.922603  10.214722  0.34838  -0.23832  3.308567  -0.209062  0.920115  9.03448  -0.695826  2.481155  9.03448  -0.695826  2.481155  -5.448382  8.348397  3.538149  158.536456  11.617783  176.593929  -24.989652  58.443202  96.404995  76.617415  -13.393957  7.215463  -2.086858  9.573022  -21.876217  -97.638028  59.225253  -145.166038  -19.215311  19.430048  -73.633033  80.027572  -2.535433  16.460855  -10.872621  -0.138341  0.151718  -8.154427  -0.106495  0.111368  
0.0  89.887642  0.0  -3.32002  -21.335816  -95.868497  11.333242  -15.875011  6.733194  0.377302  0.885869  21.06919  4.086149  2.402552  1.583776  -9.99861  5.097883  -0.13456  -6.92897  4.924352  2.652101  10.331166  0.410713  -0.159832  3.082527  -0.161491  0.954611  8.418078  -0.562038  2.583961  8.418079  -0.562038  2.583961  -5.247489  8.581854  3.222584  158.370875  11.584457  176.809184  -26.669335  59.542986  94.125236  76.543657  -13.83632  7.787336  -1.793066  10.980144  -21.420892  -96.973813  59.552214  -144.157394  -19.790499  19.459005  -73.763879  77.830027  -2.862348  16.063141  -9.64417  0.141168  0.275188  -7.233189  0.101563  0.20868  
0.0  89.887642  0.0  -2.966696  -22.065758  -96.380707  10.59627  -15.442184  7.753992  1.677541  0.667207  20.796062  4.09177  2.379883  1.52456  -9.723415  5.496013  -0.335281  -5.774621  4.919365  3.492662  10.415607  0.468539  -0.141122  2.890483  -0.148274  1.009748  7.893221  -0.525093  2.737862  7.89322  -0.525093  2.737862  -4.764387  8.749797  3.173574  158.454308  11.508145  177.154906  -27.580201  60.142824  93.052694  76.321019  -13.962872  9.001358  -0.964918  11.022873  -19.661704  -95.913388  58.549606  -143.459309  -19.303597  17.520357  -74.053983  76.20266  -2.917391  16.013607  -8.484583  0.22607  0.417941  -6.363587  0.163787  0.316667  
